<svg xmlns="http://www.w3.org/2000/svg" viewBox="0 0 1200 700">
  <rect width="1200" height="700" fill="#1a1230"/>
  <text x="62" y="78" fill="#ffcb3d" font-family="Arial, sans-serif" font-size="16" font-weight="700" letter-spacing="4">ARQUITECTURA DE IDENTIDAD</text>
  <text x="62" y="124" fill="#ffffff" font-family="Arial, sans-serif" font-size="42" font-weight="700">Una marca no termina en el logotipo.</text>
  <text x="62" y="162" fill="#d7cde3" font-family="Arial, sans-serif" font-size="17">Se convierte en decisiones coherentes para cada punto de contacto.</text>
  <g stroke="#8e7bc3" stroke-width="2" fill="none"><path d="M600 340L230 265M600 340L230 430M600 340L970 265M600 340L970 430M600 340L600 555"/></g>
  <g transform="translate(485 240)"><circle cx="115" cy="100" r="105" fill="#ff5b70"/><text x="74" y="92" fill="#ffffff" font-family="Arial, sans-serif" font-size="33" font-weight="700">MARCA</text><text x="70" y="122" fill="#ffffff" font-family="Arial, sans-serif" font-size="15" letter-spacing="2">NÚCLEO</text></g>
  <g transform="translate(82 210)"><rect width="296" height="112" rx="6" fill="#7046ff"/><text x="24" y="39" fill="#ffcb3d" font-family="Arial, sans-serif" font-size="13" font-weight="700" letter-spacing="2">01 / ESTRATEGIA</text><text x="24" y="78" fill="#ffffff" font-family="Arial, sans-serif" font-size="24" font-weight="700">Propósito y audiencia</text></g>
  <g transform="translate(82 375)"><rect width="296" height="112" rx="6" fill="#00bfae"/><text x="24" y="39" fill="#1a1230" font-family="Arial, sans-serif" font-size="13" font-weight="700" letter-spacing="2">02 / EXPRESIÓN</text><text x="24" y="78" fill="#1a1230" font-family="Arial, sans-serif" font-size="24" font-weight="700">Voz y dirección visual</text></g>
  <g transform="translate(822 210)"><rect width="296" height="112" rx="6" fill="#ffcb3d"/><text x="24" y="39" fill="#1a1230" font-family="Arial, sans-serif" font-size="13" font-weight="700" letter-spacing="2">03 / SISTEMA</text><text x="24" y="78" fill="#1a1230" font-family="Arial, sans-serif" font-size="24" font-weight="700">Reglas y componentes</text></g>
  <g transform="translate(822 375)"><rect width="296" height="112" rx="6" fill="#ffffff"/><text x="24" y="39" fill="#ff5b70" font-family="Arial, sans-serif" font-size="13" font-weight="700" letter-spacing="2">04 / APLICACIÓN</text><text x="24" y="78" fill="#1a1230" font-family="Arial, sans-serif" font-size="24" font-weight="700">Canales y formatos</text></g>
  <g transform="translate(410 530)"><rect width="380" height="82" rx="6" fill="#fff1e8"/><text x="25" y="35" fill="#7046ff" font-family="Arial, sans-serif" font-size="13" font-weight="700" letter-spacing="2">05 / APRENDIZAJE</text><text x="25" y="62" fill="#1a1230" font-family="Arial, sans-serif" font-size="20" font-weight="700">Uso, revisión y evolución</text></g>
</svg>
