<svg xmlns="http://www.w3.org/2000/svg" viewBox="0 0 900 300" role="img" aria-labelledby="title desc">
  <title id="title">Corporate email signature</title>
  <desc id="desc">Firma de correo conceptual con identidad Coast Oil Dynamic, datos de contacto y una llamada a la acción.</desc>
  <rect width="900" height="300" fill="#fffdf8"/><rect x="0" width="14" height="300" fill="#1fb7a6"/><path d="M600 0h300v300H690c-36-74-38-155-90-300Z" fill="#0b1724"/><path d="M620 0h50c30 72 44 156 104 300h-50C664 194 650 90 620 0Z" fill="#f5a623" opacity=".95"/>
  <g font-family="Arial, sans-serif"><text x="60" y="72" fill="#0b1724" font-size="30" font-weight="700">Alineación técnica.</text><text x="60" y="110" fill="#1fb7a6" font-size="30" font-weight="700">Conversaciones que avanzan.</text><path d="M60 145h430" stroke="#d9d4c9" stroke-width="2"/><text x="60" y="188" fill="#0b1724" font-size="18" font-weight="700">NOMBRE APELLIDO</text><text x="60" y="218" fill="#5f6c76" font-size="15">Project Development / Coast Oil Dynamic</text><text x="60" y="250" fill="#5f6c76" font-size="14">contacto@coastoildynamic.com  ·  coastoildynamic.com</text><text x="700" y="96" fill="#fffdf8" font-size="24" font-weight="700">Coastoil</text><text x="700" y="126" fill="#1fb7a6" font-size="24" font-weight="700">Dynamic</text><text x="700" y="192" fill="#a7c1c4" font-size="13" letter-spacing="2">FLOW / PRECISION</text><circle cx="740" cy="240" r="17" fill="#1fb7a6"/><path d="M735 240h10M740 235v10" stroke="#0b1724" stroke-width="3"/></g>
</svg>
